<svg width="38" height="37" viewBox="0 0 38 37" fill="none" xmlns="http://www.w3.org/2000/svg">
<path fill-rule="evenodd" clip-rule="evenodd" d="M11.0634 0.111003C13.0707 0.0201823 13.7107 0 18.824 0C23.9373 0 24.5773 0.0218642 26.5829 0.111003C28.5885 0.200141 29.9575 0.514649 31.1554 0.970433C32.4098 1.43631 33.5478 2.16455 34.489 3.10639C35.4473 4.02974 36.1866 5.14649 36.6589 6.38098C37.1244 7.55828 37.4427 8.90377 37.5351 10.8715C37.6275 12.8477 37.648 13.4767 37.648 18.5005C37.648 23.5259 37.6258 24.1549 37.5351 26.1277C37.4444 28.0955 37.1244 29.441 36.6589 30.6183C36.1866 31.8529 35.4461 32.9715 34.489 33.8962C33.5478 34.838 32.4098 35.5646 31.1554 36.0288C29.9575 36.4863 28.5885 36.7991 26.5863 36.8899C24.5773 36.9807 23.9373 37.0009 18.824 37.0009C13.7107 37.0009 13.0707 36.9791 11.0634 36.8899C9.06119 36.8008 7.69217 36.4863 6.49428 36.0288C5.23807 35.5645 4.0999 34.8368 3.15901 33.8962C2.20135 32.9723 1.46025 31.8542 0.987405 30.6199C0.52365 29.4426 0.205353 28.0971 0.112944 26.1294C0.0205352 24.1532 0 23.5242 0 18.5005C0 13.4751 0.0222465 12.846 0.112944 10.8749C0.203641 8.90377 0.52365 7.55828 0.987405 6.38098C1.46095 5.14663 2.20261 4.02858 3.16072 3.10471C4.10028 2.16371 5.2373 1.43537 6.49257 0.970433C7.69046 0.514649 9.05948 0.201823 11.0617 0.111003H11.0634ZM26.4306 3.44109C24.4455 3.35195 23.85 3.33345 18.824 3.33345C13.798 3.33345 13.2025 3.35195 11.2174 3.44109C9.3812 3.5235 8.38524 3.82455 7.72126 4.07851C6.84338 4.41488 6.21534 4.81348 5.5565 5.461C4.93197 6.05815 4.45133 6.7851 4.14984 7.58855C3.89144 8.24111 3.58512 9.21996 3.50127 11.0246C3.41057 12.9755 3.39174 13.5608 3.39174 18.5005C3.39174 23.4401 3.41057 24.0254 3.50127 25.9763C3.58512 27.781 3.89144 28.7598 4.14984 29.4124C4.45102 30.2146 4.93189 30.9429 5.5565 31.5399C6.16401 32.1538 6.90499 32.6264 7.72126 32.9224C8.38524 33.1764 9.3812 33.4774 11.2174 33.5598C13.2025 33.649 13.7963 33.6675 18.824 33.6675C23.8517 33.6675 24.4455 33.649 26.4306 33.5598C28.2668 33.4774 29.2628 33.1764 29.9267 32.9224C30.8046 32.586 31.4327 32.1874 32.0915 31.5399C32.7161 30.9429 33.197 30.2146 33.4982 29.4124C33.7566 28.7598 34.0629 27.781 34.1467 25.9763C34.2374 24.0254 34.2563 23.4401 34.2563 18.5005C34.2563 13.5608 34.2374 12.9755 34.1467 11.0246C34.0629 9.21996 33.7566 8.24111 33.4982 7.58855C33.1559 6.72576 32.7503 6.10852 32.0915 5.461C31.4839 4.84724 30.7442 4.37487 29.9267 4.07851C29.2628 3.82455 28.2668 3.5235 26.4306 3.44109ZM16.4197 24.2036C17.7624 24.753 19.2576 24.8271 20.6498 24.4134C22.042 23.9997 23.2449 23.1238 24.053 21.9352C24.8611 20.7467 25.2243 19.3193 25.0805 17.8968C24.9367 16.4744 24.295 15.1451 23.2648 14.136C22.608 13.491 21.814 12.9971 20.9397 12.6899C20.0655 12.3827 19.1328 12.2698 18.2088 12.3593C17.2848 12.4489 16.3925 12.7387 15.5962 13.2079C14.7999 13.677 14.1193 14.3139 13.6034 15.0726C13.0876 15.8313 12.7493 16.6929 12.613 17.5956C12.4766 18.4982 12.5456 19.4192 12.8149 20.2925C13.0843 21.1658 13.5473 21.9695 14.1706 22.6458C14.7939 23.3221 15.562 23.8541 16.4197 24.2036ZM11.9823 11.7764C12.8808 10.8934 13.9474 10.1929 15.1213 9.71503C16.2952 9.23714 17.5534 8.99118 18.824 8.99118C20.0946 8.99118 21.3528 9.23714 22.5267 9.71503C23.7006 10.1929 24.7672 10.8934 25.6657 11.7764C26.5641 12.6594 27.2768 13.7077 27.7631 14.8614C28.2493 16.0151 28.4996 17.2517 28.4996 18.5005C28.4996 19.7492 28.2493 20.9858 27.7631 22.1395C27.2768 23.2932 26.5641 24.3415 25.6657 25.2245C23.8512 27.0079 21.3901 28.0097 18.824 28.0097C16.2579 28.0097 13.7969 27.0079 11.9823 25.2245C10.1678 23.4412 9.14842 21.0225 9.14842 18.5005C9.14842 15.9784 10.1678 13.5597 11.9823 11.7764ZM30.6455 10.4073C30.8681 10.2009 31.0464 9.95271 31.1697 9.67738C31.2929 9.40204 31.3588 9.1052 31.3632 8.80442C31.3677 8.50364 31.3107 8.20503 31.1956 7.92629C31.0806 7.64754 30.9098 7.39431 30.6933 7.18161C30.4769 6.9689 30.2193 6.80103 29.9356 6.68795C29.652 6.57486 29.3482 6.51885 29.0421 6.52323C28.7361 6.52762 28.4341 6.59231 28.1539 6.71347C27.8738 6.83464 27.6212 7.00982 27.4112 7.22863C27.0027 7.65419 26.7791 8.21945 26.7878 8.80442C26.7964 9.38938 27.0367 9.948 27.4576 10.3617C27.8786 10.7754 28.4469 11.0115 29.0421 11.02C29.6373 11.0286 30.2125 10.8088 30.6455 10.4073Z" fill="black"/>
</svg>
