<svg width="39" height="39" viewBox="0 0 39 39" fill="none" xmlns="http://www.w3.org/2000/svg">
<path d="M19.5 0C8.73033 0 0 8.58028 0 19.1649C0 29.7495 8.73033 38.3298 19.5 38.3298C30.2698 38.3298 39.0001 29.7495 39.0001 19.1649C39.0001 8.58028 30.2698 0 19.5 0ZM14.7266 27.1083H10.7778V14.6192H14.7266V27.1083ZM12.7278 13.086C11.4807 13.086 10.6742 12.2176 10.6742 11.1436C10.6742 10.0476 11.505 9.20513 12.7786 9.20513C14.0522 9.20513 14.8322 10.0476 14.8566 11.1436C14.8566 12.2176 14.0522 13.086 12.7278 13.086ZM29.1485 27.1083H25.1998V20.187C25.1998 18.576 24.6269 17.482 23.199 17.482C22.1082 17.482 21.4602 18.2226 21.1738 18.9353C21.0682 19.1888 21.0418 19.5482 21.0418 19.9055V27.1063H17.091V18.6019C17.091 17.0428 17.0402 15.7392 16.9874 14.6172H20.4182L20.599 16.352H20.6782C21.1982 15.5375 22.4718 14.3357 24.6026 14.3357C27.2005 14.3357 29.1485 16.0466 29.1485 19.7239V27.1083Z" fill="black"/>
</svg>
